# xmcd CD database file
#
# Track frame offsets:
#	150
#	14706
#	34582
#	50332
#	72083
#	89333
#	106251
#	122677
#	142869
#	159596
#	178871
#
# Disc length: 2652 seconds
#
# Revision: 0
# Processed by: cddbd v1.4PL0 Copyright (c) Steve Scherf et al.
# Submitted via: CDex 1.40Release
#
DISCID=8d0a5a0b
DTITLE=Raful Neal - Old Friends
DYEAR=1900
DGENRE=Blues
TTITLE0=My Baby Left Me
TTITLE1=Someday
TTITLE2=I Got Over You
TTITLE3=You Been Sweet To Me
TTITLE4=Call Me Baby
TTITLE5=Pride and Joy
TTITLE6=Old Friend
TTITLE7=Bleeding Heart
TTITLE8=Crazy About You Baby
TTITLE9=Change My Way Of Living
TTITLE10=Sunny Side Of Love
EXTD=ID3G: 0
EXTT0=
EXTT1=
EXTT2=
EXTT3=
EXTT4=
EXTT5=
EXTT6=
EXTT7=
EXTT8=
EXTT9=
EXTT10=
PLAYORDER=
